<svg id="Layer_1" data-name="Layer 1" xmlns="http://www.w3.org/2000/svg" viewBox="0 0 240 60"><defs><style>.cls-1{fill:#2b2b2b;stroke:#2b2b2b;stroke-miterlimit:10;stroke-width:2px;}</style></defs><title>Athenify</title><path class="cls-1" d="M42.24,36.64H27.07L22.87,47H17.63L34.87,5.92h.33L52.45,47H46.33Zm-1.8-4.58L34.82,17.65,29,32.06Z"/><path class="cls-1" d="M65.87,14.49v10H72v4H65.87V47H60.74V28.51H56.59v-4h4.15v-10Z"/><path class="cls-1" d="M97.46,25.43a6.39,6.39,0,0,1,2.13,4.88V47H94.46V32.06a4.61,4.61,0,0,0-1.14-3,4.26,4.26,0,0,0-3.11-1.15A6.15,6.15,0,0,0,86.66,29a7.27,7.27,0,0,0-2.48,3.06,10.44,10.44,0,0,0-.9,4.37V47H78.2V4.72h5V28.51a9.37,9.37,0,0,1,3.63-3.6,10.64,10.64,0,0,1,5.43-1.36A7.47,7.47,0,0,1,97.46,25.43Z"/><path class="cls-1" d="M124.47,41.23,126.82,45a16.16,16.16,0,0,1-3.9,1.89A13.73,13.73,0,0,1,112.28,46a10.83,10.83,0,0,1-4.34-4.28,12.44,12.44,0,0,1-1.53-6.17,11.53,11.53,0,0,1,1.67-6.08,12.08,12.08,0,0,1,4.55-4.37A12.89,12.89,0,0,1,119,23.49a10.88,10.88,0,0,1,7.4,2.59,13.32,13.32,0,0,1,4.06,7.23l-17.9,6.28a7.17,7.17,0,0,0,2.65,2.65,7.62,7.62,0,0,0,3.79.95A9.13,9.13,0,0,0,124.47,41.23Zm-11-11.52a7.91,7.91,0,0,0-2,5.57,8.65,8.65,0,0,0,.06,1.25l13.15-4.85a7.43,7.43,0,0,0-2.32-3,6,6,0,0,0-3.74-1.15,6.71,6.71,0,0,0-5.17,2.18Z"/><path class="cls-1" d="M156,25.43a6.42,6.42,0,0,1,2.12,4.88V47H153V32.06a4.61,4.61,0,0,0-1.14-3,4.26,4.26,0,0,0-3.11-1.15,6.15,6.15,0,0,0-5,2.4,9.35,9.35,0,0,0-2,6.12V47h-5.08V24.42h4.59l.32,4.37a8.83,8.83,0,0,1,3.61-3.85,10.73,10.73,0,0,1,5.51-1.39A7.49,7.49,0,0,1,156,25.43Z"/><path class="cls-1" d="M167.47,14.27a3.11,3.11,0,0,1,2.13-.82,3,3,0,0,1,2.1.82,2.73,2.73,0,0,1,.16,3.84l-.16.16a3.08,3.08,0,0,1-2.1.82,3.15,3.15,0,0,1-2.13-.82,2.68,2.68,0,0,1-.22-3.78A2.28,2.28,0,0,1,167.47,14.27ZM172,24.42V47h-5.07V24.42Z"/><path class="cls-1" d="M182.7,29h-3.88V24.37h3.88v-9.5c0-3.27.74-5.78,2.24-7.53a8.12,8.12,0,0,1,6.54-2.62,10.15,10.15,0,0,1,2.57.36,8.3,8.3,0,0,1,2.4,1L194.27,9.8a3,3,0,0,0-2.3-.88,3.69,3.69,0,0,0-3.13,1.42,7.78,7.78,0,0,0-1.07,4.59v9.44H195V29h-7.21V47H182.7Z"/><path class="cls-1" d="M223.08,24.42,208.51,57.87h-5l5.18-11.62L198.2,24.42h5.73l7.31,16.1,7.15-16.1Z"/></svg>