<svg id="Layer_1" data-name="Layer 1" xmlns="http://www.w3.org/2000/svg" viewBox="0 0 240 60"><defs><style>.cls-1{fill:#2b2b2b;}</style></defs><title>Synthate</title><path class="cls-1" d="M30.1,18.45l-8.66,1.76a6.1,6.1,0,0,0-6.26-5c-2.94,0-4.81,1.6-4.81,3.63,0,1.45.64,2.52,2.89,3l7.43,1.66c6.21,1.39,9.84,4.76,9.84,10.42,0,7.65-6.79,11.61-14.76,11.61S1.06,41.66.1,34.65l9.09-1.76c.91,3.69,3.48,5.29,7.06,5.29,3.32,0,5.3-1.49,5.3-3.69,0-1.6-.75-2.62-3.32-3.15l-7.49-1.61c-5.13-1.17-9.62-3.85-9.62-10.37,0-7,5.77-11.29,14.17-11.29C23.1,8.07,28.77,11.92,30.1,18.45Z"/><path class="cls-1" d="M39,53.8l4.33-10-11.12-26h9.2l6.36,15.67L54.56,17.8h9.2l-15.51,36Z"/><path class="cls-1" d="M94.44,28.24V44.71H85.93V30.05c0-3.15-1.87-5.29-4.59-5.29-3.37,0-5.57,2.3-5.57,7.49V44.71H67.22V17.86h8.55v2.57A11.11,11.11,0,0,1,84,17.06C90.27,17.06,94.44,21.5,94.44,28.24Z"/><path class="cls-1" d="M112.83,45.51c-6.68,0-10.69-3.64-10.69-10.7V24.65H97.27V17.86h4.87V9.94h8.55v7.92h7.92v6.79h-7.92V34c0,2.78,1.34,3.9,3.59,3.9a8.73,8.73,0,0,0,3.9-1.07l2,6.74A14.69,14.69,0,0,1,112.83,45.51Z"/><path class="cls-1" d="M150.64,28.24V44.71h-8.5V30.05c0-3.15-1.87-5.29-4.65-5.29-3.32,0-5.51,2.3-5.51,7.49V44.71h-8.56V6.2H132V20.43a11.17,11.17,0,0,1,8.29-3.37C146.47,17.06,150.64,21.5,150.64,28.24Z"/><path class="cls-1" d="M176.21,44.71V42.57a12.1,12.1,0,0,1-8.35,2.94c-7.11,0-13.1-5.72-13.1-14.23s6-14.22,13.1-14.22A12.1,12.1,0,0,1,176.21,20V17.86h8.55V44.71Zm0-13.43a6.71,6.71,0,0,0-6.41-7h-.17c-3.75,0-6.47,2.84-6.47,7s2.72,7,6.47,7a6.68,6.68,0,0,0,6.59-6.75C176.22,31.45,176.21,31.36,176.21,31.28Z"/><path class="cls-1" d="M203.53,45.51c-6.68,0-10.69-3.64-10.69-10.7V24.65H188V17.86h4.87V9.94h8.55v7.92h7.92v6.79h-7.92V34c0,2.78,1.34,3.9,3.59,3.9a8.73,8.73,0,0,0,3.9-1.07l2,6.74A14.59,14.59,0,0,1,203.53,45.51Z"/><path class="cls-1" d="M220.22,33.48c.69,3.21,2.89,5.18,5.77,5.18a6,6,0,0,0,5.73-3.1l7.59,1.55c-2.3,5.67-7.17,8.4-13.32,8.4A13.84,13.84,0,0,1,211.82,32c0-.24,0-.47,0-.71a13.89,13.89,0,0,1,13.55-14.22h.68c7.59,0,13.69,5.45,13.85,14.22v2.2Zm.16-5.24h11.07a5.36,5.36,0,0,0-5.4-4.23A5.88,5.88,0,0,0,220.38,28.24Z"/></svg>