<svg id="Layer_1" data-name="Layer 1" xmlns="http://www.w3.org/2000/svg" xmlns:xlink="http://www.w3.org/1999/xlink" viewBox="0 0 240 60"><defs><style>.cls-1{fill:#20272b;}.cls-2{fill:url(#linear-gradient);}.cls-3{fill:#ebe8fc;}</style><linearGradient id="linear-gradient" x1="210" x2="210" y2="60" gradientTransform="translate(240 60) rotate(180)" gradientUnits="userSpaceOnUse"><stop offset="0" stop-color="#2402ff"/><stop offset="0.53" stop-color="#816dff"/><stop offset="1" stop-color="#ebe8fc"/></linearGradient></defs><title>UXZero-240x60</title><path class="cls-1" d="M87.49,46.06C79,46.06,73.23,40.2,73.23,31.2V13.94H81V31.2c0,4.78,2.58,7.73,6.52,7.73,3.71,0,6.19-3,6.19-7.73V13.94h7.74V31.2C101.42,40.2,95.84,46.06,87.49,46.06Z"/><path class="cls-1" d="M113.52,45.36h-9.15l9.85-15.76-9.75-15.66h9.14L120,24.54l6.47-10.6h9.15L125.9,29.6l9.85,15.76H126.6L120,34.67Z"/><path class="cls-1" d="M138,45.36v-5l15.85-19.93H138.47V13.94H163.7v5.91L149,38.84h15v6.52Z"/><path class="cls-1" d="M174.11,35.51c.61,2.81,2.53,4.55,5.06,4.55a5.22,5.22,0,0,0,5-2.72l6.66,1.36c-2,5-6.28,7.36-11.68,7.36a12.13,12.13,0,0,1-12.42-12.47,12.18,12.18,0,0,1,12.47-12.48c6.66,0,12,4.79,12.15,12.48v1.92Zm.14-4.6H184a4.71,4.71,0,0,0-4.74-3.7A5.15,5.15,0,0,0,174.25,30.91Z"/><path class="cls-1" d="M212.56,21.67l-.32,7.51h-1.36c-5.26,0-8.12,2.72-8.12,8.82v7.36h-7.5V21.82h7.5v4.5a9.09,9.09,0,0,1,8.12-4.83A6.42,6.42,0,0,1,212.56,21.67Z"/><path class="cls-1" d="M240,33.59C240,41.05,234.09,46,227.1,46s-13-5-13-12.43,5.91-12.38,13-12.38S240,26.18,240,33.59Zm-7.22,0a5.76,5.76,0,1,0-11.49,0,5.76,5.76,0,1,0,11.49,0Z"/><circle class="cls-2" cx="30" cy="30" r="30"/><path class="cls-3" d="M15.27,14.93C27,15.16,29.58,28.11,44,31.07a35.05,35.05,0,0,0,16-.77V30A30,30,0,0,0,1.43,20.82C5.17,17.65,9.71,14.82,15.27,14.93Z"/></svg>